<svg xmlns="http://www.w3.org/2000/svg" viewBox="0 0 512 512"><circle cx="256" cy="256" r="256" fill="#ff8e31"/><path d="M395.41 239.762l-3.364-3.364c-5.358-4.928-11.686-8.86-18.706-11.612l-.164-.161-16.31-16.351-5.34-6.328a43.82 43.82 0 00-9.4-8.371l-9.692-9.731c-1.495-1.866-3.218-3.551-5.084-5.082a33.759 33.759 0 00-21.281-7.501c-17.006 0-31.124 12.582-33.5 28.966-1.242.878-2.524 1.682-3.986 2.266-2.785 1.172-7.168 1.687-9.984 1.687h-5.158c-.207 0-.468-.026-.686-.028l-.01-.01-21.699-21.699a35.004 35.004 0 00-2.655-2.655l-.187-.187a33.777 33.777 0 00-16.033-7.764 33.885 33.885 0 00-6.241-.576c-13.455 0-25.052 7.831-30.5 19.167-5.924 2.816-10.975 6.764-14.958 11.517l-17.989 21.391a59.835 59.835 0 00-5.14 1.905c-.415.172-.804.379-1.216.561-1.239.556-2.468 1.124-3.658 1.756-.492.261-.96.556-1.441.829a56.057 56.057 0 00-3.146 1.889c-.509.33-.991.686-1.49 1.029-.955.668-1.9 1.344-2.813 2.061-.489.387-.96.788-1.436 1.188a56.908 56.908 0 00-2.563 2.26c-.448.422-.886.852-1.321 1.285a60.408 60.408 0 00-2.396 2.537 58.393 58.393 0 00-3.456 4.249c-.261.351-.527.701-.781 1.065-.282.394-.589.763-.855 1.162v.036l.041.046c-8.637 12.892-12.357 29.071-9.004 45.491a62.685 62.685 0 001.152 4.652c.125.428.274.842.407 1.265a59.788 59.788 0 0013.509 23.194c.84.878 1.72 1.754 2.596 2.596l183.276 183.276c90.532-16.714 164.347-81.011 194.527-166.031L395.41 239.762z" fill="#ed7425"/><g fill="#34495e"><path d="M339.963 205.156c0 18.716-15.171 33.889-33.889 33.889-18.708 0-33.884-15.173-33.884-33.889 0-18.711 15.178-33.887 33.884-33.887 18.718 0 33.889 15.178 33.889 33.887zM239.823 205.156c0 18.716-15.173 33.889-33.894 33.889-18.706 0-33.884-15.173-33.884-33.889 0-18.711 15.178-33.887 33.884-33.887 18.719 0 33.894 15.178 33.894 33.887z"/></g><path d="M351.516 201.961a44.677 44.677 0 00-15.411-11.794c-6.131-2.862-14.945-4.196-23.619-4.196h-3.799c-16.471 0-25.897 6.482-32.847 11.735-2.273 1.72-4.46 3.651-7.245 4.803-2.798 1.152-7.178 1.684-10.017 1.684h-5.148c-2.849 0-7.219-.532-10.015-1.684-2.796-1.152-4.984-3.085-7.255-4.803-6.95-5.253-16.379-11.735-32.847-11.735h-3.799c-8.676 0-17.477 1.334-23.619 4.196a44.839 44.839 0 00-15.409 11.794l-56.361 67.026h303.752l-56.361-67.026z" fill="#5d6d7e"/><path d="M302.38 237.527c-1.994 0-4.001.092-6.019.279a62.121 62.121 0 00-5.967.832l-20.032 3.748a77.299 77.299 0 01-14.359 1.341 77.49 77.49 0 01-14.367-1.341l-20.017-3.748a65.417 65.417 0 00-11.988-1.111h-10.028v56.402h16.425c2.747 0 5.514-.589 8.141-1.853a18.654 18.654 0 006.531-5.197l9.692-12.096c3.668-4.575 9.298-7.501 15.608-7.501 6.303 0 11.932 2.926 15.588 7.501l9.705 12.096a18.734 18.734 0 006.543 5.197 18.666 18.666 0 008.128 1.853h16.433v-56.402H302.38z" fill="#283a4d"/><path d="M273.357 267.192c0 9.572-7.759 17.352-17.354 17.352-9.585 0-17.354-7.78-17.354-17.352 0-9.6 7.77-17.362 17.354-17.362 9.594 0 17.354 7.765 17.354 17.362z" fill="#5d6d7e"/><path d="M261.67 267.192a5.663 5.663 0 01-5.665 5.66 5.654 5.654 0 01-5.66-5.66c0-3.133 2.524-5.676 5.66-5.676a5.673 5.673 0 015.665 5.676z" fill="#283a4d"/><g fill="#34495e"><path d="M172.721 339.502c-32.509 6.651-64.266-14.318-70.917-46.835-6.656-32.52 14.316-64.279 46.848-70.93 32.509-6.651 64.276 14.321 70.927 46.84 6.651 32.523-14.328 64.279-46.858 70.925zM339.279 339.502c32.517 6.651 64.266-14.318 70.917-46.835 6.653-32.52-14.318-64.279-46.843-70.93-32.517-6.651-64.274 14.321-70.925 46.84-6.65 32.523 14.327 64.279 46.851 70.925z"/></g><path d="M160.689 326.177c-25.129 0-45.548-20.429-45.548-45.558 0-25.119 20.419-45.56 45.548-45.56 25.126 0 45.553 20.442 45.553 45.56-.001 25.129-20.427 45.558-45.553 45.558z" fill="#b8d1e6"/><path d="M160.689 319.672c-21.54 0-39.04-17.513-39.04-39.053 0-21.532 17.5-39.048 39.04-39.048 21.535 0 39.048 17.516 39.048 39.048-.001 21.54-17.514 39.053-39.048 39.053z" fill="#e1effa"/><path d="M351.316 326.177c-25.132 0-45.553-20.429-45.553-45.558 0-25.119 20.421-45.56 45.553-45.56 25.121 0 45.55 20.442 45.55 45.56.001 25.129-20.426 45.558-45.55 45.558z" fill="#b8d1e6"/><path d="M351.316 319.672c-21.54 0-39.04-17.513-39.04-39.053 0-21.532 17.5-39.048 39.04-39.048s39.043 17.516 39.043 39.048c0 21.54-17.503 39.053-39.043 39.053z" fill="#e1effa"/><g fill="#fff"><path d="M156.39 249.705c6.223 6.231 5.274 17.277-2.122 24.671-7.411 7.404-18.45 8.353-24.676 2.125-6.218-6.218-5.271-17.26 2.13-24.668 7.406-7.397 18.448-8.351 24.668-2.128zM190.981 301.066c2.332 2.327 1.976 6.461-.794 9.234-2.772 2.76-6.907 3.126-9.234.799-2.322-2.33-1.966-6.464.794-9.236 2.773-2.773 6.902-3.129 9.234-.797zM347.402 249.705c6.221 6.231 5.271 17.277-2.135 24.678-7.401 7.396-18.435 8.346-24.663 2.127-6.223-6.228-5.274-17.27 2.122-24.671 7.409-7.403 18.45-8.35 24.676-2.134zM381.98 301.066c2.332 2.327 1.981 6.461-.794 9.234-2.775 2.76-6.897 3.118-9.226.791-2.332-2.322-1.974-6.456.786-9.229 2.78-2.772 6.915-3.128 9.234-.796z"/></g></svg>